<?xml version="1.0" standalone="no"?>
<!DOCTYPE svg PUBLIC "-//W3C//DTD SVG 20010904//EN"
 "http://www.w3.org/TR/2001/REC-SVG-20010904/DTD/svg10.dtd">
<svg version="1.0" xmlns="http://www.w3.org/2000/svg"
 width="142.000000pt" height="136.000000pt" viewBox="0 0 142.000000 136.000000"
 preserveAspectRatio="xMidYMid meet">
<metadata>
Created by potrace 1.16, written by Peter Selinger 2001-2019
</metadata>
<g transform="translate(0.000000,136.000000) scale(0.100000,-0.100000)"
fill="#000000" stroke="none">
<path d="M440 1190 c-182 -48 -317 -146 -382 -278 -30 -60 -33 -75 -33 -157 0
-77 4 -98 27 -147 15 -32 28 -58 30 -58 2 0 1 29 0 65 -3 56 1 75 26 128 26
56 82 120 151 175 l24 18 -34 -4 c-82 -9 -85 54 -6 130 27 26 55 48 61 48 6 0
23 6 37 14 14 7 58 21 97 30 135 34 300 6 332 -54 6 -11 17 -20 24 -20 13 0
30 -35 27 -54 -1 -4 4 -14 10 -22 9 -11 9 -14 -1 -14 -7 0 -10 -8 -7 -20 3
-10 0 -21 -7 -24 -7 -3 -7 -5 2 -5 6 -1 12 -8 12 -17 0 -13 -9 -15 -45 -12
-40 3 -44 2 -28 -11 71 -54 219 -78 287 -46 68 33 83 104 36 180 -30 48 -127
110 -223 142 -112 36 -303 42 -417 13z"/>
</g>
</svg>
